<svg width="119" height="17" xmlns="http://www.w3.org/2000/svg">

 <g>
  <title>background</title>
  <rect fill="none" id="canvas_background" height="402" width="582" y="-1" x="-1"/>
 </g>
 <g>
  <title>Layer 1</title>
  <path id="svg_1" fill-rule="evenodd" fill="#1F1F1F" d="m-113.257,-24.316c-1.88,0.181 -3.731,0.317 -5.554,0.408l0,-0.323c1.721,-0.215 3.669,-0.57 5.843,-1.062c2.174,-0.492 3.533,-0.88 4.076,-1.163c0.408,0.374 0.728,0.713 0.96,1.019c0.232,0.306 0.348,0.507 0.348,0.603c0,0.096 -0.048,0.144 -0.144,0.144a0.917,0.917 0 0 1 -0.323,-0.068c-0.119,-0.045 -0.32,-0.068 -0.603,-0.068s-0.807,0.051 -1.571,0.153c-0.764,0.102 -1.294,0.165 -1.588,0.187l0,1.257l4.297,0l0.73,-0.866c0.148,-0.17 0.287,-0.255 0.417,-0.255s0.439,0.207 0.926,0.62c0.486,0.413 0.73,0.682 0.73,0.807c0,0.124 -0.113,0.187 -0.34,0.187l-6.76,0l0,1.528l2.667,0l0.458,-0.645c0.09,-0.125 0.173,-0.187 0.247,-0.187c0.073,0 0.356,0.159 0.849,0.476c0.492,0.317 0.739,0.526 0.739,0.628c0,0.113 -0.21,0.278 -0.629,0.493l0,3.091c0,0.238 0.006,0.442 0.017,0.612l0.034,0.424a0.184,0.184 0 0 1 -0.05,0.136c-0.035,0.034 -0.148,0.102 -0.34,0.204a4.254,4.254 0 0 1 -0.646,0.272c-0.238,0.08 -0.382,0.119 -0.433,0.119c-0.051,0 -0.077,-0.063 -0.077,-0.187l0,-0.459l-2.836,0l0,1.563l3.176,0l0.544,-0.832c0.113,-0.17 0.218,-0.255 0.314,-0.255s0.28,0.096 0.552,0.289c0.272,0.192 0.51,0.387 0.713,0.586c0.204,0.198 0.306,0.342 0.306,0.433c0,0.158 -0.13,0.238 -0.39,0.238l-5.215,0l0,2.072l4.348,0l0.612,-1.02c0.124,-0.192 0.246,-0.288 0.365,-0.288s0.45,0.232 0.994,0.696c0.543,0.465 0.815,0.765 0.815,0.9c0,0.136 -0.102,0.204 -0.306,0.204l-13.995,0c-0.306,0 -0.544,0.034 -0.714,0.102l-0.306,-0.68c0.238,0.058 0.52,0.086 0.849,0.086l5.894,0l0,-2.073l-4.212,0c-0.306,0 -0.544,0.034 -0.714,0.101l-0.306,-0.645c0.238,0.057 0.521,0.085 0.85,0.085l4.382,0l0,-1.563l-2.87,0l0,0.39a0.34,0.34 0 0 1 -0.12,0.273c-0.079,0.068 -0.285,0.167 -0.62,0.297c-0.333,0.13 -0.551,0.195 -0.653,0.195c-0.046,0 -0.068,-0.045 -0.068,-0.136l0.017,-0.594c0.011,-0.181 0.017,-0.374 0.017,-0.578l0,-3.955c0,-0.476 -0.017,-0.957 -0.051,-1.444c0.736,0.215 1.274,0.408 1.613,0.577l2.735,0l0,-1.529l-6.063,0c-0.26,0 -0.498,0.04 -0.713,0.119l-0.307,-0.697c0.238,0.057 0.52,0.085 0.85,0.085l6.233,0l0,-1.087zm0,5.452l0,-1.816l-2.87,0l0,1.817l2.87,0l0,-0.001zm1.444,-1.817l0,1.817l2.836,0l0,-1.816l-2.836,0l0,-0.001zm-2.888,5.809l0,-3.499l-2.87,0l0,1.682l2.87,0l0,1.817zm1.444,-1.682l0,1.682l2.836,0l0,-3.499l-1.392,0l-1.444,1.817zm18.922,-5.792c-1.144,2.412 -2.814,4.58 -5.01,6.505l-0.273,-0.203a17.358,17.358 0 0 0 2.531,-3.627c0.691,-1.32 1.32,-2.947 1.886,-4.883a21.8,21.8 0 0 1 1.545,0.552c0.306,0.13 0.46,0.232 0.46,0.306c0,0.073 -0.108,0.141 -0.324,0.203c-0.215,0.063 -0.396,0.258 -0.543,0.586c1.359,2.514 3.074,4.066 5.147,4.654l0,0.29c-0.499,0.067 -0.841,0.146 -1.028,0.237c-0.187,0.09 -0.348,0.255 -0.484,0.493c-0.068,0.113 -0.147,0.17 -0.238,0.17c-0.204,0 -0.722,-0.45 -1.554,-1.35c-0.833,-0.901 -1.537,-2.212 -2.115,-3.933zm-7.762,2.412l-1.75,0c-0.283,0 -0.527,0.028 -0.73,0.085l-0.29,-0.663c0.239,0.057 0.522,0.085 0.85,0.085l1.92,0l0,-2.14c0,-0.657 -0.012,-1.268 -0.034,-1.834c1.426,0.396 2.14,0.685 2.14,0.866c0,0.102 -0.221,0.277 -0.663,0.526l0,2.582l0.51,0l0.594,-0.764c0.114,-0.136 0.216,-0.204 0.306,-0.204s0.232,0.09 0.425,0.272l0.628,0.577c0.227,0.204 0.34,0.357 0.34,0.459c0,0.102 -0.136,0.153 -0.408,0.153l-0.951,0l0,2.259l2.208,-1.087l0.17,0.289l-2.378,1.664l0,5.928c0,0.34 -0.025,0.606 -0.076,0.799a1.084,1.084 0 0 1 -0.34,0.526c-0.175,0.159 -0.453,0.317 -0.832,0.476c-0.38,0.158 -0.612,0.238 -0.697,0.238c-0.084,0 -0.155,-0.085 -0.212,-0.255c-0.136,-0.442 -0.328,-0.776 -0.577,-1.002c-0.25,-0.227 -0.72,-0.465 -1.41,-0.714l0.119,-0.373c1.03,0.192 1.687,0.288 1.97,0.288c0.283,0 0.456,-0.04 0.518,-0.119c0.062,-0.079 0.094,-0.226 0.094,-0.441l0,-6.149c-0.623,0.453 -1.11,0.872 -1.461,1.257c-0.08,0.091 -0.145,0.136 -0.196,0.136c-0.05,0 -0.147,-0.082 -0.288,-0.246c-0.142,-0.164 -0.445,-0.57 -0.91,-1.215c1.11,-0.362 2.062,-0.736 2.855,-1.12l0,-2.957l-1.444,1.818zm8.56,2.31l0.408,-0.629c0.113,-0.158 0.21,-0.237 0.289,-0.237c0.08,0 0.23,0.107 0.45,0.322c0.22,0.216 0.427,0.408 0.62,0.578c0.192,0.17 0.289,0.3 0.289,0.39c0,0.091 -0.09,0.136 -0.272,0.136l-4.552,0c-0.306,0 -0.544,0.034 -0.714,0.102l-0.305,-0.747c0.237,0.057 0.52,0.085 0.849,0.085l2.938,0zm0.918,7.1l-3.652,0l0,0.951c0,0.159 -0.029,0.266 -0.085,0.323c-0.057,0.057 -0.278,0.156 -0.663,0.297c-0.385,0.142 -0.606,0.213 -0.662,0.213c-0.057,0 -0.085,-0.04 -0.085,-0.12l0.034,-0.78c0.023,-0.318 0.034,-0.612 0.034,-0.884l0,-3.94c0,-0.476 -0.017,-0.958 -0.051,-1.444c0.815,0.283 1.45,0.537 1.902,0.764l3.007,0l0.34,-0.663c0.056,-0.101 0.127,-0.152 0.212,-0.152c0.085,0 0.323,0.11 0.713,0.33c0.39,0.222 0.643,0.372 0.756,0.45c0.113,0.08 0.17,0.168 0.17,0.264s-0.153,0.252 -0.459,0.467l0,3.33l0.034,1.206a0.34,0.34 0 0 1 -0.136,0.288c-0.09,0.068 -0.305,0.17 -0.645,0.306c-0.34,0.136 -0.56,0.204 -0.662,0.204c-0.068,0 -0.102,-0.08 -0.102,-0.238l0,-1.172zm-3.652,-0.577l3.652,0l0,-3.5l-3.652,0l0,3.5zm12.756,-13.64l10.395,0l0.544,-0.56c0.147,-0.159 0.26,-0.238 0.34,-0.238c0.079,0 0.22,0.085 0.424,0.255c0.204,0.17 0.44,0.376 0.705,0.62c0.266,0.243 0.459,0.436 0.578,0.577c0.119,0.142 0.178,0.252 0.178,0.332c0,0.135 -0.119,0.203 -0.357,0.203c-0.067,0 -0.158,-0.008 -0.271,-0.025a2.179,2.179 0 0 0 -0.323,-0.026c-0.351,0 -0.688,0.133 -1.01,0.4c-0.323,0.266 -0.711,0.66 -1.164,1.18l-0.324,-0.187a26,26 0 0 0 0.68,-2.004l-10.379,0c0.034,0.94 -0.139,1.679 -0.518,2.217c-0.38,0.537 -0.812,0.806 -1.3,0.806c-0.282,0 -0.498,-0.07 -0.645,-0.212a0.711,0.711 0 0 1 -0.22,-0.535c0,-0.215 0.2,-0.504 0.602,-0.866a5.484,5.484 0 0 0 1.003,-1.19c0.266,-0.43 0.433,-0.979 0.5,-1.647l0.46,0.017l0.101,0.883l0.001,0zm-10.14,18.023l-0.323,2.174l6.642,0l0.441,-0.663c0.102,-0.158 0.201,-0.237 0.298,-0.237c0.096,0 0.433,0.175 1.01,0.526c0.578,0.351 0.867,0.59 0.867,0.714c0,0.136 -0.238,0.3 -0.714,0.492c-0.011,0.6 -0.088,1.588 -0.23,2.964c-0.14,1.376 -0.384,2.265 -0.73,2.667c-0.345,0.402 -0.75,0.694 -1.214,0.875c-0.464,0.181 -0.756,0.272 -0.875,0.272s-0.195,-0.091 -0.23,-0.272a1.549,1.549 0 0 0 -0.585,-0.994c-0.323,-0.255 -0.926,-0.518 -1.81,-0.79l0.103,-0.39c1.2,0.203 1.998,0.305 2.395,0.305c0.396,0 0.668,-0.099 0.815,-0.297c0.147,-0.198 0.297,-0.719 0.45,-1.563c0.153,-0.843 0.235,-1.87 0.247,-3.083l-6.863,0l-0.373,0.544c-0.125,0.17 -0.252,0.255 -0.383,0.255c-0.13,0 -0.353,-0.102 -0.67,-0.306a6.853,6.853 0 0 1 -0.952,-0.747a1.74,1.74 0 0 0 0.56,-0.323c0.137,-0.125 0.244,-0.396 0.324,-0.815l0.526,-2.99c0.125,-0.657 0.17,-1.16 0.136,-1.512c1.314,0.397 1.97,0.697 1.97,0.9c0,0.091 -0.187,0.255 -0.56,0.493l-0.187,1.257l5.792,0l0.73,-1.104c0.068,-0.09 0.145,-0.136 0.23,-0.136c0.085,0 0.274,0.122 0.569,0.365c0.294,0.244 0.583,0.473 0.866,0.688c0.283,0.215 0.425,0.391 0.425,0.527s-0.136,0.204 -0.408,0.204l-8.289,0zm2.905,5.333l0.764,-1.053c0.102,-0.147 0.204,-0.22 0.306,-0.22c0.102,0 0.424,0.234 0.968,0.704c0.543,0.47 0.815,0.762 0.815,0.875c0,0.113 -0.124,0.17 -0.373,0.17l-9.462,0c-0.283,0 -0.526,0.028 -0.73,0.085l-0.289,-0.646c0.238,0.057 0.521,0.085 0.85,0.085l7.15,0l0.001,0zm30.014,-21.895l3.907,0l0.73,-1.12c0.08,-0.137 0.159,-0.205 0.238,-0.205c0.08,0 0.224,0.08 0.433,0.238c0.21,0.159 0.484,0.382 0.824,0.671c0.34,0.289 0.558,0.481 0.654,0.578c0.096,0.096 0.144,0.178 0.144,0.246c0,0.113 -0.119,0.17 -0.356,0.17l-5.08,0l0,3.312l2.073,0l0.646,-0.968c0.079,-0.114 0.164,-0.17 0.254,-0.17c0.091,0 0.25,0.085 0.476,0.255l0.85,0.662c0.35,0.26 0.526,0.45 0.526,0.57c0,0.118 -0.102,0.177 -0.306,0.177l-4.518,0l0,3.109l2.293,0l0.73,-1.053c0.08,-0.113 0.173,-0.17 0.28,-0.17c0.108,0 0.445,0.243 1.011,0.73c0.566,0.487 0.85,0.779 0.85,0.875c0,0.096 -0.114,0.144 -0.34,0.144l-4.824,0l0,3.907c0,0.068 -0.02,0.122 -0.06,0.162a2.81,2.81 0 0 1 -0.356,0.246c-0.198,0.124 -0.41,0.23 -0.637,0.314c-0.227,0.085 -0.371,0.127 -0.433,0.127c-0.063,0 -0.094,-0.05 -0.094,-0.152l0.068,-1.58c0.011,-0.476 0.017,-0.946 0.017,-1.41l0,-9.087l-0.289,0c-0.736,1.427 -1.97,3.017 -3.703,4.773l-0.254,-0.255c0.996,-1.325 1.778,-2.613 2.344,-3.864c0.566,-1.252 1.042,-2.698 1.427,-4.34c0.713,0.215 1.206,0.399 1.477,0.552c0.272,0.153 0.408,0.257 0.408,0.314c0,0.08 -0.09,0.139 -0.272,0.178c-0.181,0.04 -0.317,0.179 -0.407,0.417c-0.091,0.237 -0.335,0.787 -0.73,1.647l-0.001,0zm-35.874,25.377c-0.725,1.053 -1.62,2.1 -2.684,3.143l-0.255,-0.221c2.13,-2.865 3.54,-6.024 4.23,-9.478c1.348,0.419 2.021,0.707 2.021,0.866c0,0.068 -0.085,0.125 -0.255,0.17a0.715,0.715 0 0 0 -0.407,0.28c-0.102,0.142 -0.297,0.583 -0.586,1.325a21.35,21.35 0 0 1 -1.079,2.319c0.374,0.135 0.6,0.226 0.68,0.271c0.079,0.046 0.119,0.097 0.119,0.153c0,0.057 -0.125,0.153 -0.374,0.289l0,9.223c0,0.09 -0.011,0.153 -0.034,0.187c-0.023,0.034 -0.139,0.11 -0.348,0.23c-0.21,0.118 -0.422,0.217 -0.637,0.297c-0.215,0.079 -0.348,0.119 -0.4,0.119c-0.05,0 -0.076,-0.063 -0.076,-0.187l0.051,-0.9c0.023,-0.612 0.034,-1.314 0.034,-2.107l0,-27.874l0,21.895zm24.528,-2.548c-0.487,0.986 -1.348,2.293 -2.582,3.924l-0.29,-0.187c0.703,-1.528 1.227,-2.828 1.572,-3.898c0.345,-1.07 0.682,-2.454 1.01,-4.153c0.522,0.181 0.98,0.357 1.377,0.527c0.396,0.17 0.637,0.285 0.722,0.348c0.084,0.062 0.127,0.133 0.127,0.212c0,0.08 -0.094,0.142 -0.28,0.187c-0.187,0.045 -0.312,0.113 -0.374,0.204c-0.062,0.09 -0.195,0.382 -0.4,0.875c-0.203,0.492 -0.407,0.954 -0.61,1.384l2.31,0l0.458,-0.697c0.102,-0.147 0.207,-0.22 0.314,-0.22c0.108,0 0.414,0.178 0.917,0.535c0.504,0.356 0.756,0.608 0.756,0.756c0,0.147 -0.237,0.322 -0.713,0.526c-0.08,3.545 -0.142,5.872 -0.187,6.981c-0.045,1.11 -0.105,1.866 -0.178,2.268a2.652,2.652 0 0 1 -0.45,1.078c-0.227,0.318 -0.572,0.586 -1.037,0.807c-0.464,0.221 -0.792,0.332 -0.985,0.332c-0.09,0 -0.158,-0.085 -0.204,-0.255c-0.09,-0.317 -0.203,-0.566 -0.34,-0.748c-0.135,-0.18 -0.367,-0.35 -0.696,-0.51c-0.328,-0.158 -0.826,-0.328 -1.494,-0.509l0.085,-0.356c1.347,0.192 2.196,0.288 2.547,0.288s0.592,-0.037 0.722,-0.11a0.562,0.562 0 0 0 0.264,-0.365c0.045,-0.17 0.09,-0.564 0.135,-1.18c0.046,-0.618 0.091,-1.62 0.136,-3.007c0.046,-1.388 0.074,-3.066 0.085,-5.037l-2.717,0zm-6.387,-0.322l1.647,0l0.46,-0.68c0.078,-0.124 0.163,-0.187 0.254,-0.187c0.09,0 0.38,0.153 0.866,0.459c0.487,0.306 0.73,0.535 0.73,0.688c0,0.153 -0.215,0.314 -0.645,0.484l0,7.525c0,0.498 0.006,0.849 0.017,1.053l0.017,0.577a0.242,0.242 0 0 1 -0.042,0.145c-0.029,0.04 -0.13,0.102 -0.306,0.187s-0.39,0.17 -0.646,0.254c-0.254,0.085 -0.413,0.128 -0.475,0.128s-0.094,-0.063 -0.094,-0.187l0,-1.07l27.246,0l0,1.002c0,0.125 -0.051,0.22 -0.153,0.289c-0.102,0.068 -0.326,0.167 -0.671,0.297c-0.346,0.13 -0.566,0.195 -0.663,0.195c-0.096,0 -0.138,-0.068 -0.127,-0.204c0.057,-0.52 0.085,-1.08 0.085,-1.681l0,-30.558c0,-0.475 -0.017,-0.957 -0.051,-1.444a9.52,9.52 0 0 1 1.716,0.782c0.34,-1.54 0.515,-2.792 0.526,-3.754c0.498,0.102 0.968,0.238 1.41,0.408c0.442,0.17 0.696,0.283 0.764,0.34c0.068,0.056 0.102,0.118 0.102,0.186c0,0.113 -0.09,0.193 -0.272,0.238c-0.135,0.034 -0.285,0.178 -0.45,0.433c-0.164,0.255 -0.574,0.988 -1.231,2.2l-30.014,21.895zm1.783,4.365l0,-25.717l27.246,0l0,3.822l2.768,0l-30.014,21.895zm0,4.467l0,-25.801l27.246,0l0,3.906l2.768,0l-30.014,21.895zm3.432,-5.434c0.815,0.589 1.381,1.03 1.698,1.325c0.317,0.294 0.527,0.51 0.629,0.645c0.101,0.136 0.152,0.317 0.152,0.544c0,0.407 -0.13,0.77 -0.39,1.087c-0.26,0.317 -0.473,0.475 -0.637,0.475c-0.164,0 -0.28,-0.235 -0.348,-0.705c-0.068,-0.47 -0.218,-0.996 -0.45,-1.58a7.12,7.12 0 0 0 -0.841,-1.553l0.187,-0.238zm8.882,0.831l-0.526,4.67l3.787,0l0,-2.53c0,-0.498 -0.017,-0.968 -0.05,-1.41c0.498,0.113 0.945,0.23 1.341,0.348c0.397,0.12 0.649,0.207 0.756,0.264c0.108,0.056 0.162,0.124 0.162,0.203c0,0.08 -0.199,0.216 -0.595,0.408l0,2.718l3.007,0l0.849,-1.325c0.068,-0.113 0.136,-0.17 0.204,-0.17c0.09,0 0.439,0.272 1.044,0.815c0.606,0.544 0.91,0.875 0.91,0.994s-0.131,0.178 -0.392,0.178l-5.622,0l0,5.793c0,0.532 -0.056,0.914 -0.17,1.146c-0.113,0.232 -0.416,0.47 -0.908,0.713c-0.493,0.244 -0.83,0.366 -1.011,0.366c-0.113,0 -0.187,-0.09 -0.22,-0.272c-0.092,-0.43 -0.267,-0.753 -0.528,-0.968c-0.26,-0.215 -0.78,-0.453 -1.562,-0.714l0,-0.305c1.019,0.147 1.693,0.22 2.021,0.22c0.329,0 0.538,-0.06 0.629,-0.178c0.09,-0.119 0.135,-0.354 0.135,-0.705l0,-32.425l29.761,0l-0.221,0.425c-0.09,0.17 -0.181,0.255 -0.272,0.255c-0.09,0 -0.306,-0.071 -0.645,-0.213a5.832,5.832 0 0 1 -0.952,-0.5c0.227,-0.216 0.365,-0.388 0.416,-0.519c0.051,-0.13 0.105,-0.421 0.162,-0.874l0.424,-3.805c0.046,-0.408 0.068,-0.688 0.068,-0.841c0,-0.153 -0.01,-0.314 -0.034,-0.484c0.76,0.283 1.36,0.577 1.8,0.883a26.263,26.263 0 0 0 3.576,-0.594c1.06,-0.26 2.33,-0.674 3.814,-1.24c0.94,0.838 1.452,1.302 1.537,1.392c0.085,0.091 0.127,0.17 0.127,0.238c0,0.068 -0.102,0.102 -0.305,0.102l-0.493,-0.017c-0.25,0 -0.855,0.045 -1.817,0.136c-2.786,0.283 -5.04,0.447 -6.76,0.493l-33.447,27.329zm5.622,6.03c1.552,0.872 2.758,1.65 3.618,2.335c0.861,0.685 1.291,1.31 1.291,1.877c0,0.34 -0.127,0.685 -0.382,1.036s-0.484,0.527 -0.688,0.527c-0.124,0 -0.232,-0.062 -0.322,-0.187c-0.091,-0.125 -0.199,-0.345 -0.323,-0.662c-0.317,-0.804 -0.815,-1.67 -1.495,-2.6c-0.68,-0.928 -1.308,-1.596 -1.885,-2.004l0.186,-0.322zm-4.908,0.102c0.283,0.18 0.614,0.45 0.993,0.806c0.38,0.357 0.57,0.592 0.57,0.705c0,0.08 -0.125,0.133 -0.374,0.162c-0.25,0.028 -0.51,0.167 -0.782,0.416c-0.883,0.86 -1.75,1.588 -2.599,2.182a51.278,51.278 0 0 1 -2.938,1.894l-0.238,-0.322c1.02,-0.816 2.047,-1.79 3.083,-2.922c1.036,-1.132 1.798,-2.106 2.285,-2.921zm15.898,-5.334l0.73,0l0.442,-0.628c0.09,-0.136 0.19,-0.204 0.298,-0.204c0.107,0 0.308,0.167 0.603,0.5c0.294,0.335 0.441,0.55 0.441,0.646c0,0.096 -0.107,0.145 -0.323,0.145l-2.19,0l0,2.089l0.679,0l0.441,-0.612c0.091,-0.124 0.184,-0.186 0.28,-0.186c0.097,0 0.312,0.17 0.646,0.51c0.334,0.339 0.501,0.554 0.501,0.645c0,0.09 -0.096,0.135 -0.289,0.135l-2.785,0c0.974,0.238 1.46,0.43 1.46,0.578c0,0.08 -0.135,0.187 -0.407,0.323l0,1.393l0.374,0l0.322,-0.493c0.09,-0.136 0.179,-0.204 0.264,-0.204c0.084,0 0.274,0.159 0.569,0.476c0.294,0.317 0.441,0.518 0.441,0.603c0,0.085 -0.096,0.127 -0.289,0.127l-1.681,0l0,3.652c0.657,0.34 1.58,0.589 2.769,0.747c1.189,0.159 2.485,0.238 3.89,0.238c1.403,0 2.915,-0.062 4.534,-0.187l0.034,0.306c-0.452,0.113 -0.8,0.278 -1.044,0.493c-0.244,0.215 -0.382,0.458 -0.416,0.73c-0.012,0.113 -0.04,0.184 -0.085,0.212a0.433,0.433 0 0 1 -0.221,0.043c-0.464,0 -1.427,-0.06 -2.888,-0.178c-1.46,-0.12 -2.607,-0.241 -3.44,-0.366a15.691,15.691 0 0 1 -2.105,-0.441c-0.572,-0.17 -1.05,-0.365 -1.436,-0.586a4.501,4.501 0 0 1 -1.112,-0.935c-0.357,-0.402 -0.722,-0.948 -1.096,-1.639c-0.408,1.393 -1.121,2.814 -2.14,4.264l-0.306,-0.12c1.11,-2.196 1.721,-4.817 1.835,-7.864c1.075,0.26 1.613,0.465 1.613,0.612c0,0.068 -0.056,0.125 -0.17,0.17a0.385,0.385 0 0 0 -0.229,0.22c-0.04,0.103 -0.09,0.355 -0.153,0.757a14.2,14.2 0 0 1 -0.28,1.333a7.99,7.99 0 0 0 1.223,1.359l0,-31.492c0,-0.555 -0.011,-1.042 -0.034,-1.46l-2.582,0c-0.306,0 -0.543,0.04 -0.713,0.118l-0.34,-0.696c0.238,0.057 0.52,0.085 0.85,0.085l2.224,0l0,-2.09l-1.426,0c-0.306,0 -0.544,0.04 -0.714,0.12l-0.39,-0.663c0.237,0.057 0.52,0.085 0.849,0.085l1.681,0l0,-1.851c0,-0.567 -0.01,-1.07 -0.034,-1.512c0.635,0.158 1.093,0.3 1.376,0.424c0.283,0.125 0.425,0.216 0.425,0.272c0,0.08 -0.159,0.193 -0.476,0.34l0,2.327l0,27.33zm3.007,-1.495l-0.714,0c-0.249,0 -0.447,0.029 -0.594,0.085l-0.357,-0.662c0.181,0.056 0.408,0.085 0.68,0.085l4.773,0l0.475,-0.748c0.102,-0.158 0.21,-0.238 0.323,-0.238c0.113,0 0.368,0.207 0.764,0.62c0.397,0.414 0.595,0.66 0.595,0.74c0,0.079 -0.13,0.118 -0.39,0.118l-1.87,0l0,7.457l1.054,-0.272l0.085,0.34l-1.138,0.442l0,0.95c0,0.431 0.005,0.726 0.017,0.884a13.274,13.274 0 0 0 1.817,-3.465a38.009,38.009 0 0 0 -1.766,-3.193l0.305,-0.204l1.8,2.276c0.261,-0.963 0.454,-2.061 0.578,-3.295l-1.562,0c-0.306,0 -0.544,0.04 -0.714,0.119l-0.305,-0.73c0.237,0.056 0.52,0.084 0.849,0.084l1.647,0l0.323,-0.56c0.08,-0.125 0.167,-0.187 0.263,-0.187c0.097,0 0.335,0.102 0.714,0.305c0.38,0.204 0.569,0.343 0.569,0.417c0,0.073 -0.062,0.144 -0.187,0.212a0.604,0.604 0 0 0 -0.272,0.297c-0.056,0.13 -0.113,0.365 -0.17,0.705c-0.249,1.427 -0.583,2.633 -1.002,3.618c0.612,0.85 1.017,1.492 1.215,1.928c0.198,0.436 0.297,0.824 0.297,1.163c0,0.34 -0.1,0.635 -0.297,0.884c-0.198,0.249 -0.38,0.373 -0.544,0.373c-0.164,0 -0.274,-0.036 -0.331,-0.11c-0.057,-0.074 -0.108,-0.24 -0.153,-0.501c-0.102,-0.623 -0.362,-1.455 -0.781,-2.497c-0.476,0.86 -1.178,1.79 -2.106,2.786l-0.187,-0.153l0.05,0.883c0,0.102 -0.028,0.178 -0.084,0.23c-0.057,0.05 -0.21,0.127 -0.459,0.229c-0.249,0.102 -0.427,0.153 -0.535,0.153c-0.108,0 -0.161,-0.08 -0.161,-0.238l0,-2.905c-1.823,0.714 -2.814,1.116 -2.973,1.206c-0.158,0.09 -0.26,0.136 -0.306,0.136c-0.147,0 -0.35,-0.396 -0.611,-1.189c0.645,-0.068 1.104,-0.147 1.376,-0.238l0,-35.669l0,27.329zm2.514,0l-1.427,0l0,2.6l1.427,0l0,-2.6zm-1.427,3.092l0,2.225l1.427,0l0,-29.556l-1.427,0l0,27.331zm0,2.717l0,2.276l1.427,-0.322l0,-29.284l-1.427,0l0,27.33z"/>
  <text stroke="null" transform="matrix(0.5398677991902717,0,0,0.5553828728912696,-5.32051154564609,6.26655942072597) " xml:space="preserve" text-anchor="start" font-family="Helvetica, Arial, sans-serif" font-size="24" id="svg_2" y="12.117777" x="11.615509" fill-opacity="null" stroke-opacity="null" stroke-width="0" fill="#000000">Knowledge is power</text>
 </g>
</svg>